<svg width="38" height="34" viewBox="0 0 38 34" fill="none" xmlns="http://www.w3.org/2000/svg">
<path d="M20.3402 26.6492C19.2925 27.0108 18.1696 27.2047 17.0004 27.2047C11.3337 27.2047 6.73779 22.6119 6.73779 16.9451C6.73779 11.2784 11.3337 6.68542 17.0004 6.68542C19.9003 6.68542 22.5224 7.88936 24.3892 9.82554L24.502 9.94131C25.2776 10.7517 26.0126 11.6662 26.5017 12.6936C26.6524 12.5836 26.8056 12.4795 26.962 12.3782C26.4613 11.3507 25.7492 10.4073 24.9738 9.58822C23.0087 7.55945 20.0479 6.12973 16.9975 6.12973C11.024 6.12973 6.18213 10.9716 6.18213 16.9451C6.18213 22.9186 11.024 27.7605 16.9975 27.7605C21.3213 27.7605 25.0517 25.2222 26.7825 21.5555C25.2514 23.8882 22.9882 25.6883 20.3402 26.6492Z" fill="#161F30"/>
<path d="M30.9184 23.0777C28.9013 29.2826 22.9855 33.8671 16.1091 33.8613C15.7821 33.8613 15.458 33.8526 15.1367 33.8324C15.976 33.951 16.9108 34.0145 17.7848 33.9972C20.1059 33.9539 22.3374 33.3981 24.3198 32.4895C28.5539 30.4839 31.8328 26.7967 33.2973 22.2905C34.2207 19.4398 35.8326 16.7773 37.9772 14.7253C34.7214 16.5718 32.2149 19.5006 30.9184 23.0777Z" fill="#E72F41"/>
<path d="M27.2281 21.9981C25.3844 25.7982 21.5005 28.4175 17.0059 28.4175C10.7285 28.4175 5.64067 23.3094 5.64067 17.0059C5.64067 10.7054 10.7285 5.59435 17.0059 5.59435C18.9941 5.59435 20.8637 6.10661 22.4901 7.0067C24.6145 8.15564 26.354 9.92684 27.4015 12.1119C28.7878 11.3363 30.4029 10.9282 32.1074 11.0179C32.4257 11.0353 32.7443 11.0671 33.051 11.1192C32.1971 8.87918 30.8311 6.7549 29.1785 5.08498C26.0906 1.9304 21.7783 0 17.0059 0C7.61444 0 0 7.61155 0 17.003C0 20.6177 1.05926 23.9982 2.94335 26.762C5.70144 30.666 10.225 33.2449 15.3707 33.3171C22.2818 33.4155 28.1916 28.9701 30.2638 22.7449C31.5865 19.0462 34.1071 16.045 37.5194 14.2044C32.967 15.0495 29.2884 18.0478 27.2281 21.9981Z" fill="#161F30"/>
<path d="M30.2205 16.9567C32.0785 15.2954 34.3677 14.1146 36.8828 13.5995C35.453 12.3897 33.6007 11.6691 31.5808 11.6923C28.7387 11.7241 26.5595 13.2348 24.8489 15.4575C23.2168 17.576 20.9824 19.382 18.1202 19.6974C17.8742 19.7264 17.631 19.7379 17.3908 19.7437L17.414 19.7524C17.3619 19.7553 17.3098 19.7582 17.2577 19.7582C13.122 19.7582 11.6981 18.3429 12.0396 17.8451C12.3811 17.3474 12.9512 17.2316 12.9512 17.2316L13.4085 17.1882L13.2377 17.1158L13.4085 17.0087L13.1075 17.0174L13.258 16.8554L12.8036 17.0261L12.3319 17.0406L12.575 16.7743L12.876 16.6238H12.711L12.8355 16.4878L12.6097 16.5573L12.6908 16.401L12.3782 16.6267L11.1829 17.0001C11.1829 17.0001 10.9832 16.9567 10.7372 17.0377C10.4912 17.1187 10.034 17.3097 9.64905 17.5529C9.26411 17.7931 8.68531 18.1433 8.64477 18.178C8.60425 18.2127 8.52902 18.3198 8.53771 18.3777C8.54348 18.4385 8.64768 18.7279 8.85894 18.8986C9.07022 19.0694 9.19177 19.1735 9.37988 19.2257C9.56511 19.2806 9.97317 19.3675 10.2105 19.5238C10.4478 19.68 10.6765 19.79 10.552 20.0736C10.4247 20.3573 9.94134 20.1894 9.70403 20.1344C9.4696 20.0765 8.17305 19.6742 8.17305 19.6742L7.45531 19.2112C7.45531 19.2112 7.29611 19.0983 7.21796 19.2372C7.13982 19.3761 7.31348 19.4282 7.31348 19.4282C7.31348 19.4282 7.20639 19.5296 7.37136 19.6337C7.53922 19.7379 7.74759 19.7726 7.74759 19.7726C7.74759 19.7726 7.59422 19.8392 7.61448 19.9058C7.63474 19.9694 7.65788 20.0216 7.74471 20.036C7.82862 20.0505 7.99651 20.0592 8.16725 20.1865C8.33799 20.3138 8.60137 20.4962 8.89368 20.6582C9.18597 20.8203 9.69534 21.0634 9.69534 21.0634L8.70845 21.101C8.70845 21.101 8.26854 20.9853 8.10648 20.9564C7.94439 20.9303 7.90388 20.8666 7.82285 20.9969C7.74471 21.1242 7.93282 21.1532 7.93282 21.1532C7.93282 21.1532 7.88074 21.2892 8.10068 21.3384C8.25697 21.3731 8.33511 21.3442 8.36694 21.3239C8.32931 21.3528 8.25985 21.4223 8.3438 21.4976C8.45377 21.593 8.53479 21.4454 8.78371 21.5119C9.0326 21.5757 8.98628 21.5612 9.17731 21.677C9.36543 21.7927 9.77348 22.1023 10.552 22.1747C11.3305 22.2472 11.5794 22.2414 11.9846 22.1516C12.3927 22.0619 13.1423 21.894 13.1423 21.894L15.1189 21.9113C15.1189 21.9113 17.4632 22.936 18.9855 23.0661C20.5107 23.1994 21.24 23.095 21.677 23.1154C22.1113 23.1356 22.7363 23.1965 23.1645 23.3933C23.593 23.593 23.8331 23.7809 23.9633 23.9748C24.0937 24.1687 24.1748 24.2876 24.2498 24.2354C24.3222 24.1863 24.4988 24.0212 24.1658 23.5754C23.8331 23.1299 23.4889 22.9821 23.0315 22.8145C22.5741 22.6465 21.6132 22.2529 21.6132 22.2529C21.6132 22.2529 22.2732 22.2036 22.6725 22.2414C23.0719 22.2789 23.4482 22.4062 23.6828 22.6061C23.92 22.8058 23.9953 22.936 24.0328 22.9792C24.0703 23.0257 24.2036 23.2802 24.3078 23.2283C24.4149 23.1789 24.5915 23.0719 24.2412 22.551C23.8911 22.0302 22.9562 21.7321 22.5539 21.6308C22.1517 21.5266 21.1619 21.2313 21.1619 21.2313L20.256 20.8724C20.2907 20.8695 20.3226 20.8695 20.3573 20.8666C24.1456 20.7074 27.5579 19.2488 30.2205 16.9567Z" fill="#E72F41"/>
</svg>
