<svg width="550" height="119" viewBox="0 0 550 119" fill="none" xmlns="http://www.w3.org/2000/svg">
<path d="M70.9715 92.8256C67.3409 94.0793 63.4495 94.7513 59.3976 94.7513C39.76 94.7513 23.8332 78.8346 23.8332 59.197C23.8332 39.5594 39.76 23.6427 59.3976 23.6427C69.447 23.6427 78.5337 27.8149 85.0027 34.5246L85.3938 34.9258C88.0817 37.734 90.6292 40.9033 92.3242 44.4638C92.8457 44.0826 93.3773 43.7216 93.9188 43.3706C92.1837 39.8101 89.7165 36.5405 87.0286 33.7022C80.2186 26.6716 69.9585 21.717 59.3875 21.717C38.6868 21.717 21.9076 38.4963 21.9076 59.197C21.9076 79.8977 38.6868 96.6769 59.3875 96.6769C74.3715 96.6769 87.2994 87.8811 93.297 75.1738C87.9914 83.2576 80.1484 89.4959 70.9715 92.8256Z" fill="#161F30"/>
<path d="M107.629 80.4493C100.639 101.952 80.1384 117.839 56.3085 117.819C55.1752 117.819 54.0519 117.789 52.9386 117.719C55.8471 118.13 59.0866 118.35 62.1155 118.29C70.1591 118.14 77.8918 116.214 84.762 113.065C99.435 106.115 110.798 93.3371 115.873 77.7213C119.073 67.8423 124.659 58.6153 132.091 51.5044C120.808 57.9032 112.122 68.053 107.629 80.4493Z" fill="#E72F41"/>
<path d="M94.8415 76.7084C88.4528 89.877 74.9933 98.9536 59.4176 98.9536C37.6638 98.9536 20.0321 81.2517 20.0321 59.4076C20.0321 37.5736 37.6638 19.8616 59.4176 19.8616C66.3078 19.8616 72.7868 21.6368 78.4234 24.756C85.785 28.7376 91.8126 34.8756 95.4433 42.4479C100.247 39.76 105.844 38.3458 111.751 38.6567C112.854 38.7169 113.958 38.8272 115.021 39.0078C112.062 31.245 107.328 23.8834 101.601 18.0964C90.9 7.16436 75.9561 0.474731 59.4176 0.474731C26.8721 0.474731 0.484741 26.8521 0.484741 59.3976C0.484741 71.9243 4.15551 83.6387 10.6847 93.2168C20.2427 106.746 35.9187 115.683 53.751 115.933C77.7012 116.274 98.1813 100.869 105.362 79.2959C109.946 66.4783 118.681 56.0778 130.506 49.6991C114.73 52.6277 101.982 63.0182 94.8415 76.7084Z" fill="#161F30"/>
<path d="M105.212 59.2371C111.651 53.4802 119.584 49.3882 128.3 47.603C123.345 43.4107 116.926 40.9134 109.926 40.9936C100.077 41.1039 92.5248 46.3393 86.5974 54.0419C80.9408 61.3834 73.1981 67.6418 63.279 68.735C62.4265 68.8353 61.584 68.8754 60.7516 68.8954L60.8318 68.9255C60.6513 68.9355 60.4707 68.9456 60.2902 68.9456C45.9582 68.9456 41.0237 64.0412 42.2072 62.3161C43.3906 60.5911 45.3664 60.1899 45.3664 60.1899L46.9511 60.0395L46.3593 59.7887L46.9511 59.4176L45.908 59.4477L46.4295 58.8861L44.8549 59.4778L43.2201 59.528L44.0626 58.6052L45.1057 58.0837H44.534L44.9653 57.6123L44.183 57.853L44.4638 57.3115L43.3806 58.0937L39.2385 59.3875C39.2385 59.3875 38.5464 59.2371 37.6939 59.5179C36.8414 59.7987 35.2568 60.4607 33.9229 61.3032C32.5889 62.1356 30.5831 63.3492 30.4426 63.4695C30.3022 63.5899 30.0415 63.961 30.0716 64.1615C30.0916 64.3722 30.4527 65.3751 31.1848 65.9668C31.917 66.5586 32.3382 66.9196 32.9901 67.1002C33.632 67.2907 35.0461 67.5916 35.8686 68.1332C36.691 68.6748 37.4833 69.0559 37.052 70.0388C36.6107 71.0217 34.9358 70.44 34.1134 70.2494C33.301 70.0488 28.8079 68.6547 28.8079 68.6547L26.3206 67.05C26.3206 67.05 25.7689 66.6589 25.4981 67.1403C25.2273 67.6217 25.8291 67.8022 25.8291 67.8022C25.8291 67.8022 25.458 68.1533 26.0297 68.5143C26.6114 68.8754 27.3335 68.9957 27.3335 68.9957C27.3335 68.9957 26.802 69.2264 26.8722 69.4571C26.9424 69.6777 27.0226 69.8583 27.3235 69.9084C27.6143 69.9585 28.1961 69.9886 28.7878 70.4299C29.3795 70.8712 30.2922 71.5031 31.3052 72.0647C32.3181 72.6264 34.0833 73.4688 34.0833 73.4688L30.6633 73.5992C30.6633 73.5992 29.1388 73.198 28.5772 73.0978C28.0155 73.0075 27.8751 72.7868 27.5943 73.2382C27.3235 73.6795 27.9754 73.7798 27.9754 73.7798C27.9754 73.7798 27.7949 74.2511 28.5571 74.4216C29.0987 74.542 29.3695 74.4417 29.4798 74.3715C29.3494 74.4718 29.1087 74.7125 29.3996 74.9733C29.7807 75.3042 30.0615 74.7927 30.9241 75.0234C31.7866 75.2441 31.6261 75.1939 32.2881 75.5951C32.94 75.9963 34.3541 77.0694 37.052 77.3201C39.7499 77.5709 40.6125 77.5508 42.0166 77.2399C43.4307 76.929 46.0284 76.3473 46.0284 76.3473L52.8785 76.4075C52.8785 76.4075 61.0023 79.9579 66.2778 80.4092C71.5633 80.8706 74.0907 80.5095 75.6051 80.5797C77.1095 80.6499 79.2759 80.8605 80.7602 81.5425C82.2446 82.2346 83.077 82.8865 83.5284 83.5584C83.9797 84.2304 84.2605 84.6416 84.5213 84.4611C84.772 84.2906 85.3838 83.7189 84.2304 82.1744C83.077 80.6298 81.8835 80.1184 80.2989 79.5366C78.7142 78.9549 75.3845 77.5909 75.3845 77.5909C75.3845 77.5909 77.6712 77.4204 79.0552 77.5508C80.4393 77.6812 81.7431 78.1225 82.5555 78.8145C83.3779 79.5066 83.6387 79.9579 83.7691 80.1083C83.8995 80.2688 84.3608 81.1514 84.7219 80.9709C85.093 80.8004 85.7048 80.4293 84.4912 78.624C83.2776 76.8187 80.0381 75.7856 78.644 75.4346C77.2499 75.0736 73.8199 74.0506 73.8199 74.0506L70.6807 72.8069C70.801 72.7969 70.9114 72.7969 71.0317 72.7868C84.1602 72.2352 95.9849 67.1804 105.212 59.2371Z" fill="#E72F41"/>
<path d="M192.829 51.4643L184.675 96.1554H125.832L133.996 51.4643H148.82L143.013 83.3879H150.194L156.001 51.4643H170.824L165.017 83.3879H172.198L178.006 51.4643H192.829Z" fill="#E72F41"/>
<path d="M242.354 51.4643L234.19 96.1554H218.795L223.389 71.122H223.158L208.395 96.1554H190.412L198.566 51.4643H213.961L209.307 77.0092H209.538L224.361 51.4643H242.354Z" fill="#E72F41"/>
<path d="M289.192 51.4643L281.038 96.1554H265.643L268.631 79.6871H258.331L255.342 96.1554H239.937L248.101 51.4643H263.506L260.688 66.9196H270.968L273.786 51.4643H289.192Z" fill="#E72F41"/>
<path d="M369.176 51.4643L367.281 62.0052H347.573L346.369 68.4541H365.215L363.379 78.6741H344.534L343.27 85.6345H363.379L361.424 96.1654H326.26L334.424 51.4743H369.176V51.4643Z" fill="#E72F41"/>
<path d="M509.618 51.4643L501.454 96.1554H486.059L490.653 71.122H490.422L475.659 96.1554H457.676L465.84 51.4643H481.235L476.581 77.0092H476.812L491.646 51.4643H509.618Z" fill="#E72F41"/>
<path d="M292.06 96.1554C291.448 96.1554 290.897 95.8746 290.536 95.4333C288.399 92.9059 287.487 89.3554 288.078 86.0257L292.01 64.4725C292.231 63.2288 292.702 62.0554 293.384 61.0625C295.49 57.8932 298.078 55.0649 300.996 52.708C301.979 51.9056 303.223 51.4543 304.587 51.4543H328.547L326.631 62.0052H307.856L303.554 85.6045H322.359L320.443 96.1554H292.06Z" fill="#E72F41"/>
<path d="M413.647 54.6236C413.416 52.8684 411.982 51.4844 410.167 51.4844H375.094L366.94 96.1454H382.325L384.652 83.3879H404.369C406.195 83.3879 407.87 82.3549 408.712 80.8706C413.195 73.188 414.87 64.0211 413.647 54.6236ZM396.256 72.0748C395.965 72.5762 395.393 72.9373 394.771 72.9373H386.557L388.553 62.0353H396.747C397.369 62.0353 397.86 62.5067 397.941 63.1085C398.362 66.3179 397.79 69.4471 396.256 72.0748Z" fill="#E72F41"/>
<path d="M513.018 96.1554C512.396 96.1554 511.855 95.8746 511.494 95.4333C509.357 92.9059 508.435 89.3554 509.036 86.0257L512.968 64.4725C513.179 63.2288 513.67 62.0554 514.342 61.0625C516.448 57.8932 519.036 55.0649 521.954 52.708C522.937 51.9056 524.181 51.4543 525.545 51.4543H549.505L547.589 62.0052H528.825L524.522 85.6045H543.327L541.411 96.1554H513.018Z" fill="#E72F41"/>
<path d="M454.005 73.5591V73.3184C457.004 68.2535 458.338 62.1757 457.395 55.8973C457.335 55.4961 457.285 55.095 457.204 54.6938C456.894 52.8684 455.299 51.4743 453.383 51.4743H421.048L412.945 96.1353H441.779C443.895 96.1353 445.831 95.2628 447.225 93.8887C452.24 88.9442 454.998 81.8234 454.105 74.2913C454.085 74.0506 454.045 73.7998 454.005 73.5591ZM438.369 86.146C438.139 86.5673 437.657 86.8581 437.136 86.8581H428.952L430.606 77.8116H438.78C439.292 77.8116 439.703 78.2027 439.763 78.7042C440.114 81.372 439.643 83.9696 438.369 86.146ZM441.328 68.2636C441.107 68.6547 440.666 68.9255 440.185 68.9255H432.311L433.846 60.5108H441.709C442.19 60.5108 442.572 60.8719 442.622 61.3433C442.953 63.8105 442.511 66.2276 441.328 68.2636Z" fill="#E72F41"/>
<path d="M130.275 102.343L122.232 115.912H125.391L127.126 112.884H132.181L132.642 115.912H135.611L133.344 102.343H130.275ZM128.29 110.697L131.188 105.552L131.93 110.697H128.29Z" fill="#171F2F"/>
<path d="M157.565 105.493C157.565 102.464 154.807 102.354 152.591 102.354H147.446L144.567 115.923H150.856C152.481 115.923 153.122 115.863 153.905 115.653C155.75 115.161 156.974 113.366 156.974 111.48C156.974 110.106 156.292 109.133 155.028 108.722C156.583 108.411 157.565 107.148 157.565 105.493ZM150.766 113.587H147.947L148.75 109.866H151.267C152.471 109.866 154.065 109.785 154.065 111.49C154.065 113.496 152.23 113.587 150.766 113.587ZM151.889 107.87H149.161L149.843 104.65H152.24C153.213 104.65 154.587 104.61 154.587 105.984C154.597 107.669 153.223 107.87 151.889 107.87Z" fill="#171F2F"/>
<path d="M166.963 104.811H171.216L168.859 115.913H171.827L174.194 104.811H178.326L178.838 102.344H167.485L166.963 104.811Z" fill="#171F2F"/>
<path d="M193.521 102.063C189.289 102.063 186.169 105.553 186.169 110.237C186.169 113.988 188.376 116.254 192.057 116.254C196.881 116.254 199.619 112.423 199.619 107.85C199.619 104.219 197.332 102.063 193.521 102.063ZM192.257 113.857C190.292 113.857 189.118 112.523 189.118 110.277C189.118 107.739 190.472 104.48 193.441 104.48C195.457 104.48 196.6 105.723 196.6 107.91C196.6 110.447 195.246 113.857 192.257 113.857Z" fill="#171F2F"/>
<path d="M216.388 102.043C211.704 102.043 208.976 105.834 208.976 110.257C208.976 114.028 211.133 116.244 214.753 116.244C218.103 116.244 220.641 114.299 221.232 111.059H218.264C217.822 112.854 216.629 113.837 214.944 113.837C213.058 113.837 211.955 112.503 211.955 110.237C211.955 107.719 213.269 104.46 216.208 104.46C218.013 104.46 218.835 105.282 218.915 107.047H221.794V106.767C221.784 103.908 219.648 102.043 216.388 102.043Z" fill="#171F2F"/>
<path d="M230.148 115.913H240.609L241.151 113.436H233.619L234.341 110.086H241.181L241.682 107.759H234.842L235.464 104.771H242.846L243.337 102.344H233.027L230.148 115.913Z" fill="#171F2F"/>
<path d="M260.989 102.614C260.377 102.444 259.675 102.344 258.602 102.344H253.326L250.448 115.913H253.407L254.46 111.039H257.378C258.672 111.039 260.177 110.959 261.3 110.257C262.594 109.434 263.416 107.88 263.416 106.195C263.406 104.46 262.453 103.056 260.989 102.614ZM257.98 108.692H254.951L255.774 104.771H257.96C259.274 104.771 260.518 104.901 260.518 106.486C260.507 108.08 259.404 108.692 257.98 108.692Z" fill="#171F2F"/>
<path d="M284.237 105.493C284.237 102.464 281.469 102.354 279.262 102.354H274.117L271.239 115.923H277.527C279.142 115.923 279.794 115.863 280.576 115.653C282.422 115.161 283.645 113.366 283.645 111.48C283.645 110.106 282.963 109.133 281.7 108.722C283.254 108.411 284.237 107.148 284.237 105.493ZM277.437 113.587H274.619L275.421 109.866H277.939C279.142 109.866 280.737 109.785 280.737 111.49C280.737 113.496 278.901 113.587 277.437 113.587ZM278.56 107.87H275.832L276.514 104.65H278.911C279.884 104.65 281.258 104.61 281.258 105.984C281.268 107.669 279.894 107.87 278.56 107.87Z" fill="#171F2F"/>
<path d="M296.784 111.741H296.724L298.71 102.344H295.741L292.862 115.913H296.403L303.303 106.506H303.363L301.357 115.913H304.326L307.204 102.344H303.684L296.784 111.741Z" fill="#171F2F"/>
<path d="M323.181 102.043C318.498 102.043 315.77 105.834 315.77 110.257C315.77 114.028 317.926 116.244 321.546 116.244C324.896 116.244 327.434 114.299 328.025 111.059H325.057C324.615 112.854 323.422 113.837 321.737 113.837C319.852 113.837 318.748 112.503 318.748 110.237C318.748 107.719 320.062 104.46 323.001 104.46C324.806 104.46 325.628 105.282 325.709 107.047H328.587V106.767C328.577 103.908 326.441 102.043 323.181 102.043Z" fill="#171F2F"/>
<path d="M347.122 107.549H341.595L342.699 102.344H339.73L336.851 115.913H339.82L341.064 110.066H346.59L345.346 115.913H348.325L351.194 102.344H348.225L347.122 107.549Z" fill="#171F2F"/>
<path d="M370.53 115.913H373.499L376.377 102.344H373.399L370.53 115.913Z" fill="#171F2F"/>
<path d="M367.682 107.489C367.07 107.318 366.368 107.218 365.305 107.218H363.67L364.703 102.344H361.744L358.866 115.913H364.071C365.365 115.913 366.869 115.833 367.993 115.131C369.287 114.309 370.109 112.754 370.109 111.069C370.109 109.344 369.156 107.93 367.682 107.489ZM364.693 113.516H362.326L363.149 109.595H364.673C365.987 109.595 367.23 109.725 367.23 111.31C367.23 112.905 366.127 113.516 364.693 113.516Z" fill="#171F2F"/>
<path d="M384.1 115.913H394.561L395.092 113.436H387.57L388.292 110.086H395.132L395.624 107.759H388.784L389.416 104.771H396.787L397.289 102.344H386.978L384.1 115.913Z" fill="#171F2F"/>
<path d="M431.268 113.436H429.764L432.131 102.344H429.152L426.795 113.436H421.249L423.606 102.344H420.637L417.759 115.913H427.878L427.367 118.29H430.245L431.268 113.436Z" fill="#171F2F"/>
<path d="M440.154 115.913H450.615L451.147 113.436H443.625L444.347 110.086H451.187L451.678 107.759H444.838L445.47 104.771H452.842L453.343 102.344H443.033L440.154 115.913Z" fill="#171F2F"/>
<path d="M470.915 107.549H465.389L466.492 102.344H463.523L460.645 115.913H463.613L464.857 110.066H470.383L469.14 115.913H472.118L474.987 102.344H472.018L470.915 107.549Z" fill="#171F2F"/>
<path d="M483.762 104.811H488.015L485.648 115.913H488.617L490.984 104.811H495.116L495.637 102.344H484.274L483.762 104.811Z" fill="#171F2F"/>
<path d="M512.507 102.614C511.895 102.444 511.193 102.344 510.13 102.344H504.854L501.976 115.913H504.924L505.978 111.039H508.896C510.19 111.039 511.694 110.959 512.818 110.257C514.111 109.434 514.934 107.88 514.934 106.195C514.924 104.46 513.971 103.056 512.507 102.614ZM509.488 108.692H506.459L507.281 104.771H509.478C510.792 104.771 512.035 104.901 512.035 106.486C512.025 108.08 510.922 108.692 509.488 108.692Z" fill="#171F2F"/>
<path d="M531.583 107.489C530.971 107.318 530.269 107.218 529.206 107.218H527.571L528.604 102.344H525.655L522.777 115.913H527.982C529.276 115.913 530.78 115.833 531.904 115.131C533.197 114.309 534.02 112.754 534.02 111.069C534 109.344 533.047 107.93 531.583 107.489ZM528.584 113.516H526.217L527.039 109.595H528.564C529.878 109.595 531.121 109.725 531.121 111.31C531.121 112.905 530.018 113.516 528.584 113.516Z" fill="#171F2F"/>
<path d="M537.299 102.344L534.421 115.913H537.39L540.268 102.344H537.299Z" fill="#171F2F"/>
</svg>
